<svg xmlns="http://www.w3.org/2000/svg" viewBox="0 0 32 32" aria-hidden="true">
<path fill="#fff" d="M19.11 17.21c-.28-.14-1.65-.82-1.9-.91-.25-.09-.43-.14-.62.14-.18.28-.71.91-.87 1.1-.16.19-.32.21-.6.07-.28-.14-1.16-.43-2.2-1.37-.81-.72-1.36-1.61-1.52-1.88-.16-.28-.02-.43.12-.57.13-.13.28-.32.42-.48.14-.16.18-.28.28-.46.09-.19.05-.35-.02-.49-.07-.14-.62-1.5-.85-2.06-.22-.53-.44-.46-.62-.47h-.53c-.18 0-.46.07-.7.35-.24.28-.92.9-.92 2.19 0 1.29.95 2.53 1.08 2.71.14.19 1.85 2.82 4.48 3.95.63.27 1.12.43 1.51.55.63.2 1.2.17 1.65.1.5-.08 1.53-.62 1.75-1.21.22-.59.22-1.09.15-1.21-.07-.11-.25-.18-.53-.32z"/>
<path fill="#fff" d="M16.01 4.8c-6.11 0-11.06 4.95-11.06 11.06 0 1.95.51 3.86 1.47 5.55L4.8 27.2l5.93-1.56a11.03 11.03 0 0 0 5.27 1.35h.01c6.11 0 11.07-4.95 11.07-11.06 0-2.95-1.15-5.72-3.23-7.81a10.97 10.97 0 0 0-7.84-3.32zm0 20.33h-.01a9.15 9.15 0 0 1-4.67-1.28l-.33-.19-3.52.93.94-3.43-.22-.35a9.18 9.18 0 0 1-1.42-4.91c0-5.06 4.12-9.18 9.19-9.18 2.45 0 4.75.96 6.48 2.69a9.1 9.1 0 0 1 2.68 6.49c0 5.06-4.12 9.18-9.12 9.18z"/>
</svg>